<svg id="svg" version="1.1" xmlns="http://www.w3.org/2000/svg" xmlns:xlink="http://www.w3.org/1999/xlink" width="400" height="400" viewBox="0, 0, 400,400"><g id="svgg"><path id="path0" d="M183.829 16.900 C 183.383 18.423,181.844 24.419,180.827 28.600 C 180.184 31.240,178.729 37.000,177.593 41.400 C 176.457 45.800,175.378 50.030,175.194 50.800 C 173.851 56.443,172.719 60.916,172.178 62.726 C 171.438 65.201,170.729 68.026,170.002 71.400 C 169.717 72.720,169.155 74.880,168.753 76.200 C 168.351 77.520,167.654 80.220,167.205 82.200 C 166.756 84.180,166.113 86.790,165.776 88.000 C 165.440 89.210,163.985 94.880,162.543 100.600 C 159.675 111.985,159.402 112.557,157.106 112.003 C 155.975 111.731,127.491 100.525,124.200 99.058 C 123.540 98.763,120.390 97.487,117.200 96.221 C 114.010 94.955,110.140 93.408,108.600 92.783 C 100.400 89.457,73.095 78.789,72.220 78.569 C 70.962 78.254,70.957 78.151,72.352 81.245 C 76.421 90.275,79.295 96.596,80.514 99.200 C 81.286 100.850,83.624 105.980,85.710 110.600 C 90.264 120.687,91.295 122.942,93.025 126.600 C 93.753 128.140,94.830 130.480,95.417 131.800 C 96.927 135.193,105.522 154.276,106.406 156.200 C 110.967 166.121,110.968 166.070,106.285 167.577 C 104.918 168.017,101.190 169.297,98.000 170.422 C 94.810 171.547,90.220 173.158,87.800 174.003 C 85.380 174.848,79.800 176.799,75.400 178.339 C 62.095 182.995,49.995 187.196,46.400 188.406 C 44.530 189.035,41.920 189.947,40.600 190.431 C 38.139 191.334,29.284 194.464,24.081 196.271 C 22.475 196.829,21.224 197.473,21.301 197.702 C 21.413 198.040,28.841 201.482,43.000 207.758 C 43.880 208.148,44.890 208.618,45.244 208.802 C 45.598 208.986,49.918 210.931,54.844 213.124 C 59.770 215.317,65.240 217.774,67.000 218.584 C 70.092 220.008,71.089 220.454,74.300 221.854 C 75.125 222.213,77.274 223.203,79.076 224.054 C 80.878 224.904,82.449 225.600,82.566 225.600 C 82.684 225.600,83.999 226.160,85.490 226.844 C 86.980 227.529,92.250 229.885,97.200 232.081 C 108.101 236.915,108.726 237.406,107.050 239.811 C 106.748 240.245,104.793 243.480,102.706 247.000 C 100.619 250.520,96.881 256.730,94.399 260.800 C 91.916 264.870,89.255 269.280,88.483 270.600 C 87.265 272.685,86.573 273.848,84.596 277.129 C 84.374 277.498,83.544 278.880,82.753 280.200 C 81.961 281.520,79.557 285.480,77.410 289.000 C 75.263 292.520,72.146 297.650,70.484 300.400 C 68.821 303.150,66.029 307.740,64.279 310.600 C 62.529 313.460,60.740 316.430,60.302 317.200 C 59.864 317.970,59.167 319.078,58.753 319.662 C 57.447 321.503,58.408 321.693,62.000 320.303 C 62.330 320.176,62.960 319.980,63.400 319.870 C 63.840 319.759,66.630 318.954,69.600 318.082 C 77.276 315.827,95.974 310.377,97.400 309.980 C 98.060 309.796,99.320 309.445,100.200 309.200 C 102.531 308.552,102.893 308.447,118.200 304.003 C 125.900 301.767,133.190 299.663,134.400 299.326 C 135.610 298.990,137.140 298.564,137.800 298.380 C 138.460 298.196,139.720 297.845,140.600 297.600 C 141.480 297.355,142.740 297.001,143.400 296.812 C 152.632 294.175,152.372 294.056,153.379 301.400 C 154.279 307.959,154.763 311.367,155.199 314.200 C 155.402 315.520,156.037 320.020,156.611 324.200 C 157.185 328.380,158.020 334.320,158.466 337.400 C 158.912 340.480,159.452 344.350,159.666 346.000 C 159.879 347.650,160.205 350.080,160.390 351.400 C 160.574 352.720,161.096 356.500,161.550 359.800 C 162.003 363.100,162.825 368.950,163.376 372.800 C 163.927 376.650,164.573 381.240,164.812 383.000 C 165.605 388.849,165.669 389.200,165.935 389.184 C 166.081 389.175,168.000 386.642,170.200 383.557 C 172.400 380.471,174.877 377.013,175.705 375.873 C 176.532 374.733,177.517 373.350,177.893 372.800 C 178.803 371.470,187.062 360.010,195.432 348.465 C 199.155 343.331,202.468 338.741,202.796 338.265 C 203.123 337.789,204.923 335.300,206.796 332.734 C 208.668 330.168,212.450 324.886,215.200 320.997 C 221.555 312.008,221.893 311.599,222.936 311.607 C 223.698 311.613,233.088 319.370,239.815 325.549 C 240.923 326.567,242.363 327.850,243.015 328.401 C 243.667 328.952,246.270 331.217,248.800 333.435 C 251.330 335.654,257.494 340.992,262.498 345.299 C 267.502 349.606,272.902 354.301,274.498 355.733 C 276.094 357.165,280.820 361.297,285.000 364.916 L 292.600 371.496 292.718 368.505 C 292.782 366.860,292.287 358.828,291.617 350.657 C 289.857 329.177,289.617 326.137,289.417 322.800 C 289.318 321.150,289.048 317.460,288.818 314.600 C 288.587 311.740,288.318 308.050,288.220 306.400 C 288.011 302.892,286.939 289.646,286.374 283.600 L 285.981 279.400 287.013 278.500 C 288.291 277.385,288.233 277.385,323.000 278.193 C 336.860 278.515,354.770 278.878,362.800 279.001 C 370.830 279.123,377.850 279.308,378.400 279.411 C 381.706 280.031,381.163 279.444,346.884 245.288 C 327.207 225.682,313.200 211.428,313.200 211.008 C 313.200 210.272,314.510 209.012,318.200 206.200 C 319.354 205.320,323.043 202.440,326.397 199.800 C 329.751 197.160,332.968 194.641,333.547 194.201 C 334.126 193.762,336.400 191.995,338.600 190.274 C 342.133 187.510,347.963 182.991,357.000 176.011 C 358.540 174.822,361.177 172.757,362.860 171.424 C 364.543 170.091,368.503 166.989,371.660 164.532 C 374.817 162.074,380.006 158.025,383.192 155.534 L 388.984 151.005 387.192 150.720 C 386.206 150.563,379.910 149.893,373.200 149.231 C 327.440 144.713,329.502 144.913,323.600 144.404 C 315.188 143.679,310.314 143.180,307.754 142.781 C 306.409 142.571,304.529 142.400,303.577 142.400 C 299.918 142.400,292.725 141.468,292.180 140.923 C 291.828 140.571,291.705 139.901,291.843 139.085 C 292.186 137.055,293.633 130.322,294.010 129.000 C 294.198 128.340,294.543 126.810,294.777 125.600 C 295.406 122.346,296.201 118.574,297.814 111.200 C 298.608 107.570,299.979 101.270,300.861 97.200 C 301.742 93.130,302.610 89.170,302.789 88.400 C 302.968 87.630,303.482 85.200,303.933 83.000 C 304.383 80.800,305.136 77.290,305.607 75.200 C 306.078 73.110,306.808 69.510,307.229 67.200 C 307.651 64.890,308.178 62.190,308.400 61.200 C 308.623 60.210,308.992 58.500,309.220 57.400 C 309.448 56.300,309.791 54.680,309.982 53.800 C 310.174 52.920,310.462 51.512,310.622 50.671 L 310.914 49.142 309.557 49.970 C 308.811 50.425,307.795 50.798,307.300 50.799 C 306.776 50.799,306.400 51.045,306.400 51.387 C 306.400 52.037,302.609 54.988,300.977 55.609 C 300.405 55.826,298.827 56.787,297.469 57.744 C 296.111 58.701,288.610 63.798,280.799 69.070 C 272.988 74.342,265.698 79.286,264.599 80.058 C 260.221 83.132,257.064 85.298,249.400 90.488 C 245.000 93.467,239.388 97.277,236.930 98.953 C 234.242 100.785,232.053 102.000,231.439 102.000 C 230.184 102.000,230.190 102.010,224.397 91.000 C 223.356 89.020,222.096 86.680,221.599 85.800 C 220.466 83.795,215.332 74.237,212.682 69.200 C 211.583 67.110,209.961 64.050,209.077 62.400 C 208.194 60.750,206.806 58.140,205.992 56.600 C 199.728 44.743,190.919 28.230,188.816 24.400 C 187.910 22.750,186.598 20.275,185.899 18.900 C 184.645 16.434,184.115 15.921,183.829 16.900 M304.790 58.200 C 304.523 60.549,304.516 60.560,304.459 58.733 C 304.408 57.135,304.721 55.309,304.980 55.683 C 305.025 55.747,304.939 56.880,304.790 58.200 M193.343 74.529 C 193.939 75.668,195.076 77.680,195.872 79.000 C 196.667 80.320,197.981 82.570,198.792 84.000 C 204.936 94.837,207.454 99.296,208.503 101.200 C 209.170 102.410,209.850 103.580,210.016 103.800 C 210.181 104.020,210.810 105.100,211.414 106.200 C 213.280 109.598,221.225 123.699,222.345 125.600 C 222.928 126.590,223.832 128.245,224.354 129.277 C 225.636 131.816,225.958 131.844,228.906 129.678 C 231.786 127.562,234.407 125.661,245.691 117.504 C 250.031 114.367,254.599 111.080,255.842 110.200 C 257.086 109.320,263.013 105.045,269.014 100.700 C 279.315 93.241,281.346 92.072,281.825 93.321 C 282.017 93.822,280.948 99.389,277.778 114.400 C 276.060 122.531,275.909 123.268,274.869 128.600 C 274.440 130.800,273.327 136.200,272.396 140.600 C 268.686 158.129,268.401 159.768,268.983 160.216 C 269.281 160.445,274.716 161.035,281.062 161.527 C 287.408 162.019,293.680 162.519,295.000 162.639 C 296.320 162.758,298.750 162.924,300.400 163.008 C 303.257 163.153,308.871 163.616,317.200 164.394 C 319.290 164.589,324.150 164.956,328.000 165.209 C 339.303 165.952,339.327 166.000,331.500 171.968 C 328.585 174.190,323.410 178.182,320.000 180.839 C 316.590 183.495,311.820 187.183,309.400 189.035 C 306.980 190.887,303.547 193.526,301.772 194.901 C 299.997 196.275,297.027 198.561,295.172 199.980 C 293.317 201.399,290.540 203.536,289.000 204.730 C 287.460 205.923,285.534 207.372,284.720 207.950 C 283.906 208.527,283.148 209.221,283.036 209.491 C 282.920 209.770,290.970 217.627,301.716 227.724 C 312.102 237.482,321.991 246.801,323.692 248.433 C 325.392 250.065,328.137 252.632,329.792 254.137 C 335.891 259.686,337.749 259.432,298.167 258.458 C 280.166 258.015,265.271 257.756,265.067 257.882 C 264.696 258.111,264.832 260.850,265.587 268.400 C 265.796 270.490,266.162 274.450,266.400 277.200 C 266.638 279.950,267.271 286.340,267.806 291.400 C 268.341 296.460,268.863 301.770,268.966 303.200 C 269.238 306.973,269.541 310.235,270.246 317.002 C 270.966 323.902,270.907 325.400,269.917 325.400 C 269.361 325.400,254.284 312.360,248.798 307.135 C 248.028 306.401,246.858 305.380,246.198 304.867 C 245.539 304.354,243.815 302.824,242.366 301.467 C 240.917 300.110,236.876 296.480,233.386 293.400 C 229.895 290.320,225.365 286.300,223.318 284.467 C 221.271 282.634,219.427 281.194,219.220 281.267 C 218.798 281.416,219.271 280.792,196.400 311.363 C 180.147 333.088,178.840 334.647,177.804 333.541 C 177.236 332.934,176.079 326.342,174.024 312.000 C 173.788 310.350,173.325 307.560,172.996 305.800 C 172.666 304.040,171.939 299.630,171.380 296.000 C 170.820 292.370,170.199 288.410,169.999 287.200 C 169.800 285.990,169.274 282.660,168.831 279.800 C 167.680 272.362,167.153 270.000,166.644 270.000 C 166.398 270.000,164.938 270.373,163.399 270.830 C 161.859 271.286,159.250 272.019,157.600 272.457 C 155.950 272.896,154.060 273.400,153.400 273.577 C 152.389 273.848,146.814 275.397,140.200 277.246 C 139.320 277.492,138.150 277.846,137.600 278.033 C 137.050 278.220,135.250 278.730,133.600 279.166 C 129.474 280.257,122.481 282.201,118.400 283.391 C 116.530 283.937,113.290 284.831,111.200 285.378 C 109.110 285.925,106.500 286.647,105.400 286.982 C 101.041 288.310,100.429 287.485,102.934 283.659 C 103.892 282.196,106.350 278.390,108.397 275.200 C 110.443 272.010,113.059 267.951,114.209 266.179 C 115.359 264.408,117.783 260.628,119.595 257.779 C 121.406 254.931,124.463 250.170,126.386 247.200 C 138.837 227.978,138.249 229.222,135.456 228.023 C 134.545 227.632,132.990 226.945,132.000 226.496 C 131.010 226.047,129.120 225.228,127.800 224.677 C 124.118 223.139,119.137 220.977,116.634 219.833 C 115.392 219.265,114.302 218.800,114.212 218.800 C 114.121 218.800,112.496 218.080,110.600 217.200 C 108.704 216.320,107.079 215.600,106.988 215.600 C 106.898 215.600,105.783 215.124,104.512 214.542 C 103.240 213.960,99.410 212.269,96.000 210.785 C 84.330 205.706,77.000 202.496,75.900 201.984 C 73.401 200.820,74.761 199.424,80.000 197.773 C 81.870 197.184,87.090 195.491,91.600 194.010 C 96.110 192.530,100.700 191.036,101.800 190.690 C 102.900 190.345,106.950 188.995,110.800 187.692 C 114.650 186.388,122.570 183.743,128.400 181.815 C 134.230 179.886,139.138 178.227,139.306 178.127 C 139.474 178.027,138.503 175.843,137.147 173.273 C 134.536 168.322,130.587 160.592,117.289 134.400 C 112.766 125.490,108.746 117.674,108.355 117.031 C 107.839 116.181,107.752 115.664,108.037 115.131 C 108.707 113.879,106.463 113.098,136.400 125.011 C 144.870 128.382,155.760 132.687,160.600 134.578 C 165.440 136.468,169.722 138.198,170.116 138.421 C 170.510 138.644,170.995 138.727,171.194 138.604 C 171.655 138.319,175.143 126.829,177.994 116.200 C 178.171 115.540,178.966 112.750,179.760 110.000 C 180.554 107.250,181.408 104.280,181.656 103.400 C 181.905 102.520,182.269 101.260,182.466 100.600 C 184.145 94.978,187.447 83.185,188.067 80.600 C 188.489 78.840,189.006 76.847,189.217 76.172 C 189.428 75.496,189.600 74.564,189.600 74.100 C 189.600 71.454,191.873 71.714,193.343 74.529 " stroke="none" fill="#f9f9f9" fill-rule="evenodd"></path></g></svg>